<svg width="679" height="678" xmlns="http://www.w3.org/2000/svg" xmlns:xlink="http://www.w3.org/1999/xlink" xml:space="preserve" overflow="hidden"><g transform="translate(-935 -1735)"><path d="M945.5 2074C945.5 1892.57 1092.8 1745.5 1274.5 1745.5 1456.2 1745.5 1603.5 1892.57 1603.5 2074 1603.5 2255.43 1456.2 2402.5 1274.5 2402.5 1092.8 2402.5 945.5 2255.43 945.5 2074Z" stroke="#FFFFFF" stroke-width="20.625" stroke-miterlimit="8" fill="#FAE200" fill-rule="evenodd"/><path d="M1002 2073.5C1002 1923 1124 1801 1274.5 1801 1425 1801 1547 1923 1547 2073.5 1547 2224 1425 2346 1274.5 2346 1124 2346 1002 2224 1002 2073.5Z" fill="#FFFFFF" fill-rule="evenodd"/><g><g><g><path d="M124.177 398.125 132.708 379.167 322.292 379.167 330.823 398.125 124.177 398.125ZM150.245 341.25 305.229 341.25 313.76 360.208 141.713 360.208 150.245 341.25ZM142.187 260.677C142.187 252.62 148.349 246.458 156.406 246.458 164.463 246.458 170.625 252.62 170.625 260.677 170.625 268.734 164.463 274.896 156.406 274.896 148.349 274.896 142.187 268.734 142.187 260.677ZM142.187 66.3541C142.187 55.9271 150.719 47.3958 161.146 47.3958L199.062 47.3958C199.062 42.1823 203.328 37.9166 208.542 37.9166L246.458 37.9166C251.672 37.9166 255.937 42.1823 255.937 47.3958L293.854 47.3958C304.281 47.3958 312.812 55.9271 312.812 66.3541L312.812 161.146C312.812 166.359 308.547 170.625 303.333 170.625L151.667 170.625C146.453 170.625 142.187 166.359 142.187 161.146L142.187 66.3541ZM296.224 322.292 158.776 322.292 167.307 303.333 287.693 303.333 296.224 322.292ZM298.594 274.896C290.536 274.896 284.375 268.734 284.375 260.677 284.375 252.62 290.536 246.458 298.594 246.458 306.651 246.458 312.812 252.62 312.812 260.677 312.812 268.734 306.651 274.896 298.594 274.896ZM308.547 303.333 312.812 303.333C328.453 303.333 341.25 290.536 341.25 274.896L341.25 56.875C341.25 36.0208 324.187 18.9583 303.333 18.9583L151.667 18.9583C130.812 18.9583 113.75 36.0208 113.75 56.875L113.75 274.896C113.75 290.536 126.547 303.333 142.187 303.333L146.453 303.333 86.2604 436.041 107.115 436.041 115.646 417.083 338.88 417.083 347.411 436.041 368.265 436.041 308.547 303.333Z" transform="matrix(1 0 0 1 1047 1846)"/></g></g></g></g></svg>