<svg width="811" height="811" xmlns="http://www.w3.org/2000/svg" xmlns:xlink="http://www.w3.org/1999/xlink" xml:space="preserve" overflow="hidden"><g transform="translate(-2465 -1496)"><path d="M2480.5 1901.5 2870.5 1511.5 3260.5 1901.5 2870.5 2291.5Z" stroke="#FFFFFF" stroke-width="20.625" stroke-miterlimit="8" fill="#F74A55" fill-rule="evenodd"/><path d="M2547 1901 2870 1578 3193 1901 2870 2224Z" fill="#FEE6E8" fill-rule="evenodd"/><g><g><g><path d="M242.344 118.528C242.344 135.712 228.684 149.372 211.5 149.372 194.316 149.372 180.656 135.712 180.656 118.528 180.656 101.344 194.316 87.6843 211.5 87.6843 228.684 87.6843 242.344 101.784 242.344 118.528" transform="matrix(1 0 0 1 2658 1665)"/><path d="M365.719 136.153C365.719 153.337 352.059 166.997 334.875 166.997 317.69 166.997 304.031 153.337 304.031 136.153 304.031 118.969 317.69 105.309 334.875 105.309 352.059 105.309 365.719 118.969 365.719 136.153" transform="matrix(1 0 0 1 2658 1665)"/><path d="M118.969 136.153C118.969 153.337 105.309 166.997 88.125 166.997 70.9406 166.997 57.2812 153.337 57.2812 136.153 57.2812 118.969 70.9406 105.309 88.125 105.309 105.309 105.309 118.969 118.969 118.969 136.153" transform="matrix(1 0 0 1 2658 1665)"/><path d="M37.8937 335.315C37.8937 270.984 115.444 218.991 211.5 218.991 307.115 218.991 385.106 270.984 385.106 335.315L37.8937 335.315Z" transform="matrix(1 0 0 1 2658 1665)"/><path d="M77.55 235.294C96.0562 222.956 117.647 213.262 141 207.094L141 202.247C141 197.4 138.797 192.553 135.712 189.469 134.391 188.147 131.306 186.384 127.341 184.622 103.106 173.166 74.4656 173.166 49.7906 184.181 45.3844 185.944 41.8594 188.147 40.0969 189.469 37.4531 192.553 35.25 197.4 35.25 202.247L35.25 277.153C45.3844 261.731 59.4843 247.191 77.55 235.294" transform="matrix(1 0 0 1 2658 1665)"/><path d="M264.375 202.687 264.375 184.622C264.375 179.775 262.172 174.928 259.087 171.844 257.766 170.522 254.681 168.759 250.716 166.997 226.481 155.541 197.841 155.541 173.166 166.556 168.759 168.319 165.234 170.522 163.472 171.844 159.947 174.928 158.184 179.775 158.184 184.622L158.184 202.687C175.369 199.162 192.994 197.4 211.059 197.4 229.125 197.4 247.191 199.603 264.375 202.687" transform="matrix(1 0 0 1 2658 1665)"/><path d="M387.75 277.153 387.75 202.247C387.75 197.4 385.547 192.553 382.462 189.469 381.14 188.147 378.056 186.384 374.09 184.622 349.856 173.166 321.215 173.166 296.54 184.181 292.134 185.944 288.609 188.147 286.847 189.469 283.322 192.553 281.559 197.4 281.559 202.247L281.559 207.094C304.912 213.262 326.503 222.956 345.009 235.294 363.515 247.191 377.615 261.731 387.75 277.153" transform="matrix(1 0 0 1 2658 1665)"/></g></g></g><g><g><g><path d="M2805.07 2073 2851.07 2027 2825.44 2027C2833.82 2010.71 2850.83 1999.45 2870.48 1999.45 2883.18 1999.45 2894.92 2004.24 2903.78 2012.15L2950.5 2012.15C2936.36 1981.96 2905.7 1961.35 2870.48 1961.35 2829.51 1961.35 2795.01 1989.15 2784.95 2027L2759.07 2027 2805.07 2073Z" stroke="#FEE6E8" stroke-width="20.9091"/><path d="M2981.65 2073 2935.65 2027 2889.65 2073 2915.52 2073C2907.14 2089.29 2890.13 2100.55 2870.48 2100.55 2857.78 2100.55 2846.04 2095.76 2837.18 2087.85L2790.22 2087.85C2804.59 2118.04 2835.02 2138.65 2870.48 2138.65 2911.45 2138.65 2945.95 2110.85 2956.01 2073L2981.65 2073Z" stroke="#FEE6E8" stroke-width="20.9091"/></g></g></g></g></svg>